<?xml version="1.0" encoding="UTF-8"?>
<svg width="308px" height="24px" viewBox="0 0 308 24" version="1.1" xmlns="http://www.w3.org/2000/svg" xmlns:xlink="http://www.w3.org/1999/xlink">
    <!-- Generator: Sketch 55.1 (78136) - https://sketchapp.com -->
    <title>Asparagus home</title>
    <desc>Created with Sketch.</desc>
    <g id="Symbols" stroke="none" stroke-width="1" fill="none" fill-rule="evenodd">
        <g id="HEADER" transform="translate(-565.000000, -89.000000)" fill-rule="nonzero">
            <g id="Asparagus-home" transform="translate(565.250000, 89.800000)">
                <path d="M9.84,5.13 L6.48,13.32 L13.38,13.32 L9.84,5.13 Z M-5.68434189e-14,21.78 L2.52,21.78 L11.46,0 L12.27,0 L21.72,21.78 L24.3,21.78 L24.3,22.2 L14.22,22.2 L14.22,21.78 L17.01,21.78 L13.53,13.74 L6.33,13.74 L3,21.78 L5.67,21.78 L5.67,22.2 L-5.68434189e-14,22.2 L-5.68434189e-14,21.78 Z M26.0528571,15.54 L26.5028571,15.54 C26.5428573,15.7800012 26.6128566,16.0949981 26.7128571,16.485 C26.8128576,16.8750019 26.9578562,17.2949978 27.1478571,17.745 C27.3378581,18.1950023 27.5778557,18.6549976 27.8678571,19.125 C28.1578586,19.5950024 28.512855,20.029998 28.9328571,20.43 C29.3928594,20.8900023 29.837855,21.2399988 30.2678571,21.48 C30.6978593,21.7200012 31.1078552,21.8949995 31.4978571,22.005 C31.8878591,22.1150006 32.2578554,22.175 32.6078571,22.185 C32.9578589,22.1950001 33.2828556,22.2 33.5828571,22.2 C34.6428624,22.2 35.5128537,22.0350017 36.1928571,21.705 C36.8728605,21.3749983 37.4078552,20.9700024 37.7978571,20.49 C38.1878591,20.0099976 38.4628563,19.5050027 38.6228571,18.975 C38.7828579,18.4449974 38.8628571,17.980002 38.8628571,17.58 C38.8628571,16.8399963 38.6878589,16.2300024 38.3378571,15.75 C37.9878554,15.2699976 37.52286,14.8700016 36.9428571,14.55 C36.3628542,14.2299984 35.7028608,13.9600011 34.9628571,13.74 C34.2228534,13.5199989 33.462861,13.2950012 32.6828571,13.065 C31.9028532,12.8349989 31.1428608,12.5650016 30.4028571,12.255 C29.6628534,11.9449984 29.00286,11.5450024 28.4228571,11.055 C27.8428542,10.5649976 27.3778589,9.9600036 27.0278571,9.24 C26.6778554,8.5199964 26.5028571,7.6200054 26.5028571,6.54 C26.5028571,5.739996 26.6828553,4.9700037 27.0428571,4.23 C27.4028589,3.4899963 27.9028539,2.83500285 28.5428571,2.265 C29.1828603,1.69499715 29.9478527,1.23500175 30.8378571,0.885 C31.7278616,0.53499825 32.6928519,0.36 33.7328571,0.36 C34.3928604,0.36 34.9728546,0.4199994 35.4728571,0.54 C35.9728596,0.6600006 36.4128552,0.78499935 36.7928571,0.915 C37.172859,1.04500065 37.5078557,1.1699994 37.7978571,1.29 C38.0878586,1.4100006 38.3528559,1.47 38.5928571,1.47 C38.8728585,1.47 39.0578567,1.42500045 39.1478571,1.335 C39.2378576,1.24499955 39.3328566,1.0800012 39.4328571,0.84 L39.9128571,0.84 L39.9128571,6.54 L39.5228571,6.54 C39.2828559,5.8399965 39.0278585,5.1500034 38.7578571,4.47 C38.4878558,3.7899966 38.1428592,3.17500275 37.7228571,2.625 C37.302855,2.07499725 36.7728603,1.6300017 36.1328571,1.29 C35.4928539,0.9499983 34.682862,0.78 33.7028571,0.78 C32.9028531,0.78 32.1978602,0.8899989 31.5878571,1.11 C30.9778541,1.3300011 30.4628592,1.6199982 30.0428571,1.98 C29.622855,2.3400018 29.3028582,2.7399978 29.0828571,3.18 C28.862856,3.6200022 28.7528571,4.0699977 28.7528571,4.53 C28.7528571,5.2300035 28.9378553,5.8099977 29.3078571,6.27 C29.677859,6.7300023 30.1628541,7.12499835 30.7628571,7.455 C31.3628601,7.78500165 32.0478533,8.0699988 32.8178571,8.31 C33.587861,8.5500012 34.3778531,8.7999987 35.1878571,9.06 C35.9978612,9.3200013 36.7878533,9.60499845 37.5578571,9.915 C38.327861,10.2250016 39.0128541,10.6199976 39.6128571,11.1 C40.2128601,11.5800024 40.6978553,12.1599966 41.0678571,12.84 C41.437859,13.5200034 41.6228571,14.36 41.6228571,15.36 C41.6228571,16.3400049 41.4228591,17.2699956 41.0228571,18.15 C40.6228551,19.0300044 40.0578608,19.7999967 39.3278571,20.46 C38.5978535,21.1200033 37.7278622,21.6449981 36.7178571,22.035 C35.7078521,22.425002 34.5828633,22.62 33.3428571,22.62 C32.722854,22.62 32.1078602,22.5600006 31.4978571,22.44 C30.8878541,22.3199994 30.3178598,22.1950007 29.7878571,22.065 C29.2578545,21.9349993 28.7878592,21.8100006 28.3778571,21.69 C27.9678551,21.5699994 27.6628581,21.51 27.4628571,21.51 C27.1828557,21.51 26.9828577,21.5549996 26.8628571,21.645 C26.7428565,21.7350005 26.6328576,21.9199986 26.5328571,22.2 L26.0528571,22.2 L26.0528571,15.54 Z M52.3757143,11.61 L53.3057143,11.61 C55.0057228,11.61 56.2357105,11.2250039 56.9957143,10.455 C57.7557181,9.68499615 58.1357143,8.3800092 58.1357143,6.54 C58.1357143,4.7999913 57.8057176,3.4700046 57.1457143,2.55 C56.485711,1.6299954 55.285723,1.17 53.5457143,1.17 C53.3257132,1.17 53.1157153,1.1799999 52.9157143,1.2 C52.7157133,1.2200001 52.5357151,1.2399999 52.3757143,1.26 L52.3757143,11.61 Z M52.3757143,21.78 L55.1357143,21.78 L55.1357143,22.2 L45.2657143,22.2 L45.2657143,21.78 L48.0257143,21.78 L48.0257143,1.26 L45.2657143,1.26 L45.2657143,0.84 L48.0257143,0.84 C49.0457194,0.84 50.0657092,0.82500015 51.0857143,0.795 C52.1057194,0.76499985 53.1257092,0.75 54.1457143,0.75 C55.0457188,0.75 56.0157091,0.82499925 57.0557143,0.975 C58.0957195,1.12500075 59.0557099,1.40499795 59.9357143,1.815 C60.8157187,2.22500205 61.5507113,2.79499635 62.1407143,3.525 C62.7307172,4.25500365 63.0257143,5.1999942 63.0257143,6.36 C63.0257143,7.1400039 62.8357162,7.87499655 62.4557143,8.565 C62.0757124,9.25500345 61.4957182,9.85499745 60.7157143,10.365 C59.9357104,10.8750026 58.9557202,11.2799985 57.7757143,11.58 C56.5957084,11.8800015 55.2057223,12.03 53.6057143,12.03 L52.3757143,12.03 L52.3757143,21.78 Z M70.6885714,5.13 L67.3285714,13.32 L74.2285714,13.32 L70.6885714,5.13 Z M60.8485714,21.78 L63.3685714,21.78 L72.3085714,0 L73.1185714,0 L82.5685714,21.78 L85.1485714,21.78 L85.1485714,22.2 L75.0685714,22.2 L75.0685714,21.78 L77.8585714,21.78 L74.3785714,13.74 L67.1785714,13.74 L63.8485714,21.78 L66.5185714,21.78 L66.5185714,22.2 L60.8485714,22.2 L60.8485714,21.78 Z M93.1714286,10.53 L94.4014286,10.53 C95.3014331,10.53 96.011426,10.4100012 96.5314286,10.17 C97.0514312,9.9299988 97.4414273,9.60500205 97.7014286,9.195 C97.9614299,8.78499795 98.1264282,8.3200026 98.1964286,7.8 C98.2664289,7.2799974 98.3014286,6.7500027 98.3014286,6.21 C98.3014286,5.3299956 98.2414292,4.57500315 98.1214286,3.945 C98.001428,3.31499685 97.80143,2.79500205 97.5214286,2.385 C97.2414272,1.97499795 96.856431,1.67 96.3664286,1.47 C95.8764261,1.269999 95.2514324,1.17 94.4914286,1.17 C94.2714275,1.17 94.0514297,1.1799999 93.8314286,1.2 L93.1714286,1.26 L93.1714286,10.53 Z M88.8214286,1.26 L86.0614286,1.26 L86.0614286,0.84 L90.5914286,0.84 C91.4314328,0.84 92.2614245,0.82500015 93.0814286,0.795 C93.9014327,0.76499985 94.7314244,0.75 95.5714286,0.75 C96.3514325,0.75 97.1764242,0.8299992 98.0464286,0.99 C98.9164329,1.1500008 99.711425,1.42499805 100.431429,1.815 C101.151432,2.20500195 101.746426,2.7299967 102.216429,3.39 C102.686431,4.0500033 102.921429,4.879995 102.921429,5.88 C102.921429,6.680004 102.74143,7.36499715 102.381429,7.935 C102.021427,8.50500285 101.556431,8.9699982 100.986429,9.33 C100.416426,9.6900018 99.7814321,9.96499905 99.0814286,10.155 C98.3814251,10.3450009 97.691432,10.4699997 97.0114286,10.53 L97.0114286,10.68 C97.9914335,10.8600009 98.8664247,11.0399991 99.6364286,11.22 C100.406432,11.4000009 101.071426,11.6699982 101.631429,12.03 C102.191431,12.3900018 102.636427,12.8899968 102.966429,13.53 C103.29643,14.1700032 103.501428,15.0299946 103.581429,16.11 C103.681429,17.3700063 103.761428,18.3799962 103.821429,19.14 C103.881429,19.9000038 103.966428,20.4899979 104.076429,20.91 C104.186429,21.3300021 104.336428,21.6099993 104.526429,21.75 C104.71643,21.8900007 104.991427,21.96 105.351429,21.96 C105.751431,21.96 106.081427,21.8450012 106.341429,21.615 C106.60143,21.3849989 106.831428,21.170001 107.031429,20.97 L107.331429,21.24 C107.131428,21.440001 106.93643,21.6249991 106.746429,21.795 C106.556428,21.9650009 106.33643,22.1099994 106.086429,22.23 C105.836427,22.3500006 105.53143,22.4449996 105.171429,22.515 C104.811427,22.5850004 104.361431,22.62 103.821429,22.62 C102.721423,22.62 101.861432,22.4450018 101.241429,22.095 C100.621425,21.7449982 100.16143,21.3100026 99.8614286,20.79 C99.5614286,20.2699974 99.3764289,19.7050031 99.3064286,19.095 C99.2364282,18.4849969 99.1914287,17.9100027 99.1714286,17.37 C99.1314284,16.5499959 99.0764289,15.7550038 99.0064286,14.985 C98.9364282,14.2149962 98.7714299,13.530003 98.5114286,12.93 C98.2514273,12.329997 97.8614312,11.8500018 97.3414286,11.49 C96.821426,11.1299982 96.0914333,10.95 95.1514286,10.95 L93.1714286,10.95 L93.1714286,21.78 L95.9314286,21.78 L95.9314286,22.2 L86.0614286,22.2 L86.0614286,21.78 L88.8214286,21.78 L88.8214286,1.26 Z M116.404286,5.13 L113.044286,13.32 L119.944286,13.32 L116.404286,5.13 Z M106.564286,21.78 L109.084286,21.78 L118.024286,0 L118.834286,0 L128.284286,21.78 L130.864286,21.78 L130.864286,22.2 L120.784286,22.2 L120.784286,21.78 L123.574286,21.78 L120.094286,13.74 L112.894286,13.74 L109.564286,21.78 L112.234286,21.78 L112.234286,22.2 L106.564286,22.2 L106.564286,21.78 Z M149.447143,6.96 L148.997143,6.96 C148.47714,4.9999902 147.697148,3.47500545 146.657143,2.385 C145.617138,1.29499455 144.227152,0.7599999 142.487143,0.78 C141.107136,0.78 139.997147,1.04499735 139.157143,1.575 C138.317139,2.10500265 137.672145,2.79499575 137.222143,3.645 C136.772141,4.49500425 136.477144,5.46499455 136.337143,6.555 C136.197142,7.64500545 136.127143,8.7499944 136.127143,9.87 L136.127143,12.48 C136.127143,14.3000091 136.247142,15.8299938 136.487143,17.07 C136.727144,18.3100062 137.10214,19.3099962 137.612143,20.07 C138.122145,20.8300038 138.782139,21.3749983 139.592143,21.705 C140.402147,22.0350017 141.367137,22.2 142.487143,22.2 C143.407147,22.2 144.13714,22.0350017 144.677143,21.705 C145.217146,21.3749983 145.632141,20.9250028 145.922143,20.355 C146.212144,19.7849971 146.397142,19.1100039 146.477143,18.33 C146.557143,17.5499961 146.597143,16.7000046 146.597143,15.78 L146.597143,14.64 L143.507143,14.64 L143.507143,14.22 L152.777143,14.22 L152.777143,14.64 L150.827143,14.64 L150.827143,21.51 L150.287143,21.51 C150.247143,21.2699988 150.132144,21.0950005 149.942143,20.985 C149.752142,20.8749995 149.537144,20.82 149.297143,20.82 C148.81714,20.82 148.362145,20.9149991 147.932143,21.105 C147.502141,21.295001 147.037145,21.4999989 146.537143,21.72 C146.03714,21.9400011 145.462146,22.1449991 144.812143,22.335 C144.16214,22.525001 143.377147,22.62 142.457143,22.62 C140.997136,22.62 139.58715,22.3350029 138.227143,21.765 C136.867136,21.1949972 135.672148,20.415005 134.642143,19.425 C133.612138,18.4349951 132.787146,17.2700067 132.167143,15.93 C131.54714,14.5899933 131.237143,13.1400078 131.237143,11.58 C131.237143,9.8799915 131.582139,8.3400069 132.272143,6.96 C132.962146,5.5799931 133.847137,4.4000049 134.927143,3.42 C136.007148,2.4399951 137.212136,1.68500265 138.542143,1.155 C139.87215,0.62499735 141.177136,0.36 142.457143,0.36 C143.057146,0.36 143.63714,0.4199994 144.197143,0.54 C144.757146,0.6600006 145.27714,0.78499935 145.757143,0.915 C146.237143,1.04500065 146.667141,1.1699994 147.047143,1.29 C147.427145,1.4100006 147.747142,1.47 148.007143,1.47 C148.287144,1.47 148.487142,1.42500045 148.607143,1.335 C148.727143,1.24499955 148.837142,1.0800012 148.937143,0.84 L149.447143,0.84 L149.447143,6.96 Z M154.77,0.84 L164.67,0.84 L164.67,1.26 L161.91,1.26 L161.91,14.73 C161.91,15.6700047 161.955,16.5849956 162.045,17.475 C162.135,18.3650045 162.344998,19.1599965 162.675,19.86 C163.005002,20.5600035 163.494997,21.1249978 164.145,21.555 C164.795003,21.9850021 165.669994,22.2 166.77,22.2 C167.850005,22.2 168.754996,22.0750012 169.485,21.825 C170.215004,21.5749988 170.819998,21.245002 171.3,20.835 C171.780002,20.424998 172.149999,19.9650025 172.41,19.455 C172.670001,18.9449975 172.859999,18.4350026 172.98,17.925 C173.100001,17.4149975 173.17,16.9350023 173.19,16.485 C173.21,16.0349978 173.22,15.6600015 173.22,15.36 L173.22,1.26 L170.49,1.26 L170.49,0.84 L176.49,0.84 L176.49,1.26 L173.7,1.26 L173.7,15.33 C173.7,15.6500016 173.69,16.0549976 173.67,16.545 C173.65,17.0350025 173.570001,17.5499973 173.43,18.09 C173.289999,18.6300027 173.080001,19.1699973 172.8,19.71 C172.519999,20.2500027 172.110003,20.7349978 171.57,21.165 C171.029997,21.5950021 170.350004,21.9449987 169.53,22.215 C168.709996,22.4850014 167.700006,22.62 166.5,22.62 C164.55999,22.62 163.000006,22.4050022 161.82,21.975 C160.639994,21.5449979 159.735003,20.9850035 159.105,20.295 C158.474997,19.6049965 158.060001,18.8200044 157.86,17.94 C157.659999,17.0599956 157.56,16.1700045 157.56,15.27 L157.56,1.26 L154.77,1.26 L154.77,0.84 Z M179.682857,15.54 L180.132857,15.54 C180.172857,15.7800012 180.242857,16.0949981 180.342857,16.485 C180.442858,16.8750019 180.587856,17.2949978 180.777857,17.745 C180.967858,18.1950023 181.207856,18.6549976 181.497857,19.125 C181.787859,19.5950024 182.142855,20.029998 182.562857,20.43 C183.022859,20.8900023 183.467855,21.2399988 183.897857,21.48 C184.327859,21.7200012 184.737855,21.8949995 185.127857,22.005 C185.517859,22.1150006 185.887855,22.175 186.237857,22.185 C186.587859,22.1950001 186.912856,22.2 187.212857,22.2 C188.272862,22.2 189.142854,22.0350017 189.822857,21.705 C190.502861,21.3749983 191.037855,20.9700024 191.427857,20.49 C191.817859,20.0099976 192.092856,19.5050027 192.252857,18.975 C192.412858,18.4449974 192.492857,17.980002 192.492857,17.58 C192.492857,16.8399963 192.317859,16.2300024 191.967857,15.75 C191.617855,15.2699976 191.15286,14.8700016 190.572857,14.55 C189.992854,14.2299984 189.332861,13.9600011 188.592857,13.74 C187.852853,13.5199989 187.092861,13.2950012 186.312857,13.065 C185.532853,12.8349989 184.772861,12.5650016 184.032857,12.255 C183.292853,11.9449984 182.63286,11.5450024 182.052857,11.055 C181.472854,10.5649976 181.007859,9.9600036 180.657857,9.24 C180.307855,8.5199964 180.132857,7.6200054 180.132857,6.54 C180.132857,5.739996 180.312855,4.9700037 180.672857,4.23 C181.032859,3.4899963 181.532854,2.83500285 182.172857,2.265 C182.81286,1.69499715 183.577853,1.23500175 184.467857,0.885 C185.357862,0.53499825 186.322852,0.36 187.362857,0.36 C188.02286,0.36 188.602855,0.4199994 189.102857,0.54 C189.60286,0.6600006 190.042855,0.78499935 190.422857,0.915 C190.802859,1.04500065 191.137856,1.1699994 191.427857,1.29 C191.717859,1.4100006 191.982856,1.47 192.222857,1.47 C192.502859,1.47 192.687857,1.42500045 192.777857,1.335 C192.867858,1.24499955 192.962857,1.0800012 193.062857,0.84 L193.542857,0.84 L193.542857,6.54 L193.152857,6.54 C192.912856,5.8399965 192.657858,5.1500034 192.387857,4.47 C192.117856,3.7899966 191.772859,3.17500275 191.352857,2.625 C190.932855,2.07499725 190.40286,1.6300017 189.762857,1.29 C189.122854,0.9499983 188.312862,0.78 187.332857,0.78 C186.532853,0.78 185.82786,0.8899989 185.217857,1.11 C184.607854,1.3300011 184.092859,1.6199982 183.672857,1.98 C183.252855,2.3400018 182.932858,2.7399978 182.712857,3.18 C182.492856,3.6200022 182.382857,4.0699977 182.382857,4.53 C182.382857,5.2300035 182.567855,5.8099977 182.937857,6.27 C183.307859,6.7300023 183.792854,7.12499835 184.392857,7.455 C184.99286,7.78500165 185.677853,8.0699988 186.447857,8.31 C187.217861,8.5500012 188.007853,8.7999987 188.817857,9.06 C189.627861,9.3200013 190.417853,9.60499845 191.187857,9.915 C191.957861,10.2250016 192.642854,10.6199976 193.242857,11.1 C193.84286,11.5800024 194.327855,12.1599966 194.697857,12.84 C195.067859,13.5200034 195.252857,14.36 195.252857,15.36 C195.252857,16.3400049 195.052859,17.2699956 194.652857,18.15 C194.252855,19.0300044 193.687861,19.7999967 192.957857,20.46 C192.227853,21.1200033 191.357862,21.6449981 190.347857,22.035 C189.337852,22.425002 188.212863,22.62 186.972857,22.62 C186.352854,22.62 185.73786,22.5600006 185.127857,22.44 C184.517854,22.3199994 183.94786,22.1950007 183.417857,22.065 C182.887854,21.9349993 182.417859,21.8100006 182.007857,21.69 C181.597855,21.5699994 181.292858,21.51 181.092857,21.51 C180.812856,21.51 180.612858,21.5549996 180.492857,21.645 C180.372857,21.7350005 180.262858,21.9199986 180.162857,22.2 L179.682857,22.2 L179.682857,15.54 Z" id="ASPARAGUS" fill="#6AAF1F"></path>
                <path d="M207.908571,0.84 L217.778571,0.84 L217.778571,1.26 L215.018571,1.26 L215.018571,11.1 L223.688571,11.1 L223.688571,1.26 L220.928571,1.26 L220.928571,0.84 L230.798571,0.84 L230.798571,1.26 L228.038571,1.26 L228.038571,21.78 L230.798571,21.78 L230.798571,22.2 L220.928571,22.2 L220.928571,21.78 L223.688571,21.78 L223.688571,11.52 L215.018571,11.52 L215.018571,21.78 L217.778571,21.78 L217.778571,22.2 L207.908571,22.2 L207.908571,21.78 L210.668571,21.78 L210.668571,1.26 L207.908571,1.26 L207.908571,0.84 Z M238.641429,11.58 C238.641429,13.6600104 238.761427,15.3849931 239.001429,16.755 C239.24143,18.1250068 239.616426,19.2149959 240.126429,20.025 C240.636431,20.835004 241.296425,21.3999984 242.106429,21.72 C242.916433,22.0400016 243.881423,22.2 245.001429,22.2 C246.481436,22.2 247.641429,21.9250027 248.481429,21.375 C249.321433,20.8249972 249.951426,20.0650048 250.371429,19.095 C250.791431,18.1249951 251.056428,16.9750066 251.166429,15.645 C251.276429,14.3149933 251.331429,12.8700078 251.331429,11.31 C251.331429,9.909993 251.286429,8.57500635 251.196429,7.305 C251.106428,6.03499365 250.851431,4.91500485 250.431429,3.945 C250.011426,2.97499515 249.376433,2.20500285 248.526429,1.635 C247.676424,1.06499715 246.501436,0.78 245.001429,0.78 C243.601422,0.78 242.481433,1.04499735 241.641429,1.575 C240.801424,2.10500265 240.161431,2.8499952 239.721429,3.81 C239.281426,4.7700048 238.991429,5.9099934 238.851429,7.23 C238.711428,8.5500066 238.641429,9.9999921 238.641429,11.58 Z M233.751429,11.58 C233.751429,9.8799915 234.096425,8.3400069 234.786429,6.96 C235.476432,5.5799931 236.361423,4.4000049 237.441429,3.42 C238.521434,2.4399951 239.731422,1.68500265 241.071429,1.155 C242.411435,0.62499735 243.721422,0.36 245.001429,0.36 C246.381435,0.36 247.746422,0.6199974 249.096429,1.14 C250.446435,1.6600026 251.646423,2.3999952 252.696429,3.36 C253.746434,4.3200048 254.596425,5.48499315 255.246429,6.855 C255.896432,8.22500685 256.221429,9.7699914 256.221429,11.49 C256.221429,12.9900075 255.916432,14.4149932 255.306429,15.765 C254.696426,17.1150067 253.876434,18.2999949 252.846429,19.32 C251.816423,20.3400051 250.626435,21.144997 249.276429,21.735 C247.926422,22.3250029 246.501436,22.62 245.001429,22.62 C243.521421,22.62 242.101435,22.3350028 240.741429,21.765 C239.381422,21.1949971 238.186434,20.4150049 237.156429,19.425 C236.126423,18.434995 235.301432,17.2700067 234.681429,15.93 C234.061425,14.5899933 233.751429,13.1400078 233.751429,11.58 Z M259.144286,0.84 L266.854286,0.84 L272.044286,15.78 L272.104286,15.78 L277.384286,0.84 L284.884286,0.84 L284.884286,1.26 L282.124286,1.26 L282.124286,21.78 L284.884286,21.78 L284.884286,22.2 L275.044286,22.2 L275.044286,21.78 L277.774286,21.78 L277.774286,1.26 L277.714286,1.26 L270.334286,22.2 L269.854286,22.2 L262.444286,1.26 L262.384286,1.26 L262.384286,21.78 L265.144286,21.78 L265.144286,22.2 L259.144286,22.2 L259.144286,21.78 L261.904286,21.78 L261.904286,1.26 L259.144286,1.26 L259.144286,0.84 Z M287.657143,0.84 L305.597143,0.84 L305.597143,5.97 L305.207143,5.97 C305.107142,5.6299983 304.937144,5.19500265 304.697143,4.665 C304.457142,4.13499735 304.122145,3.6200025 303.692143,3.12 C303.262141,2.6199975 302.707146,2.18500185 302.027143,1.815 C301.347139,1.44499815 300.517148,1.26 299.537143,1.26 L294.767143,1.26 L294.767143,10.53 L296.447143,10.53 C297.187147,10.53 297.81214,10.425001 298.322143,10.215 C298.832145,10.0049989 299.257141,9.70500195 299.597143,9.315 C299.937145,8.92499805 300.217142,8.45500275 300.437143,7.905 C300.657143,7.35499725 300.837142,6.7400034 300.977143,6.06 L301.367143,6.06 L301.367143,15.39 L300.977143,15.39 C300.837142,14.8099971 300.672144,14.2500027 300.482143,13.71 C300.292142,13.1699973 300.037144,12.695002 299.717143,12.285 C299.397141,11.8749979 299.002145,11.5500012 298.532143,11.31 C298.062141,11.0699988 297.477146,10.95 296.777143,10.95 L294.767143,10.95 L294.767143,21.78 L299.687143,21.78 C300.607147,21.78 301.437139,21.6250015 302.177143,21.315 C302.917147,21.0049984 303.57214,20.5700028 304.142143,20.01 C304.712146,19.4499972 305.187141,18.7950037 305.567143,18.045 C305.947145,17.2949962 306.237142,16.4900043 306.437143,15.63 L306.827143,15.63 L306.827143,22.2 L287.657143,22.2 L287.657143,21.78 L290.417143,21.78 L290.417143,1.26 L287.657143,1.26 L287.657143,0.84 Z" id="HOME" fill="#212121"></path>
            </g>
        </g>
    </g>
</svg>