<?xml version="1.0" encoding="UTF-8"?>
<svg width="287px" height="22px" viewBox="0 0 287 22" version="1.1" xmlns="http://www.w3.org/2000/svg" xmlns:xlink="http://www.w3.org/1999/xlink">
    <!-- Generator: Sketch 55.1 (78136) - https://sketchapp.com -->
    <title>Asparagus home</title>
    <desc>Created with Sketch.</desc>
    <g id="Symbols" stroke="none" stroke-width="1" fill="none" fill-rule="evenodd">
        <g id="FOOTER" transform="translate(-801.000000, -73.000000)" fill-rule="nonzero">
            <g id="Asparagus-home" transform="translate(801.300000, 73.280000)">
                <path d="M9.184,4.788 L6.048,12.432 L12.488,12.432 L9.184,4.788 Z M-5.68434189e-14,20.328 L2.352,20.328 L10.696,0 L11.452,0 L20.272,20.328 L22.68,20.328 L22.68,20.72 L13.272,20.72 L13.272,20.328 L15.876,20.328 L12.628,12.824 L5.908,12.824 L2.8,20.328 L5.292,20.328 L5.292,20.72 L-5.68434189e-14,20.72 L-5.68434189e-14,20.328 Z M24.316,14.504 L24.736,14.504 C24.7733335,14.7280011 24.8386662,15.0219982 24.932,15.386 C25.0253338,15.7500018 25.1606658,16.1419979 25.338,16.562 C25.5153342,16.9820021 25.739332,17.4113311 26.01,17.85 C26.280668,18.2886689 26.611998,18.6946648 27.004,19.068 C27.4333355,19.4973355 27.8486647,19.8239989 28.25,20.048 C28.6513353,20.2720011 29.0339982,20.4353328 29.398,20.538 C29.7620018,20.6406672 30.1073317,20.6966666 30.434,20.706 C30.7606683,20.7153334 31.0639986,20.72 31.344,20.72 C32.3333383,20.72 33.1453302,20.5660015 33.78,20.258 C34.4146698,19.9499985 34.9139982,19.5720022 35.278,19.124 C35.6420018,18.6759978 35.8986659,18.2046691 36.048,17.71 C36.1973341,17.2153309 36.272,16.7813352 36.272,16.408 C36.272,15.7173299 36.1086683,15.1480022 35.782,14.7 C35.4553317,14.2519978 35.021336,13.8786682 34.48,13.58 C33.938664,13.2813318 33.3226701,13.0293344 32.632,12.824 C31.9413299,12.6186656 31.2320036,12.4086677 30.504,12.194 C29.7759964,11.9793323 29.0666701,11.7273348 28.376,11.438 C27.6853299,11.1486652 27.069336,10.7753356 26.528,10.318 C25.986664,9.86066438 25.5526683,9.29600336 25.226,8.624 C24.8993317,7.95199664 24.736,7.11200504 24.736,6.104 C24.736,5.3573296 24.9039983,4.63867012 25.24,3.948 C25.5760017,3.25732988 26.0426637,2.64600266 26.64,2.114 C27.2373363,1.58199734 27.9513292,1.1526683 28.782,0.826 C29.6126708,0.4993317 30.5133285,0.336 31.484,0.336 C32.1000031,0.336 32.641331,0.39199944 33.108,0.504 C33.574669,0.61600056 33.9853316,0.73266606 34.34,0.854 C34.6946684,0.97533394 35.007332,1.09199944 35.278,1.204 C35.548668,1.31600056 35.7959989,1.372 36.02,1.372 C36.2813346,1.372 36.4539996,1.33000042 36.538,1.246 C36.6220004,1.16199958 36.7106662,1.00800112 36.804,0.784 L37.252,0.784 L37.252,6.104 L36.888,6.104 C36.6639989,5.4506634 36.4260013,4.80666984 36.174,4.172 C35.9219987,3.53733016 35.600002,2.9633359 35.208,2.45 C34.816,1.9366641 34.3213363,1.52133492 33.724,1.204 C33.1266637,0.88666508 32.3706712,0.728 31.456,0.728 C30.7093296,0.728 30.0513362,0.83066564 29.482,1.036 C28.9126638,1.24133436 28.432002,1.51199832 28.04,1.848 C27.647998,2.18400168 27.3493344,2.55733128 27.144,2.968 C26.9386656,3.37866872 26.836,3.79866452 26.836,4.228 C26.836,4.8813366 27.0086649,5.42266452 27.354,5.852 C27.6993351,6.28133548 28.1519972,6.64999846 28.712,6.958 C29.2720028,7.26600154 29.9113297,7.53199888 30.63,7.756 C31.3486703,7.98000112 32.0859962,8.21333212 32.842,8.456 C33.5980038,8.69866788 34.3353297,8.96466522 35.054,9.254 C35.7726703,9.54333478 36.4119972,9.91199776 36.972,10.36 C37.5320028,10.8080022 37.9846649,11.3493302 38.33,11.984 C38.6753351,12.6186698 38.848,13.402662 38.848,14.336 C38.848,15.2506712 38.6613352,16.1186626 38.288,16.94 C37.9146648,17.7613374 37.3873367,18.4799969 36.706,19.096 C36.0246633,19.7120031 35.2126714,20.2019982 34.27,20.566 C33.3273286,20.9300018 32.2773391,21.112 31.12,21.112 C30.5413304,21.112 29.9673362,21.0560006 29.398,20.944 C28.8286638,20.8319994 28.2966691,20.7153339 27.802,20.594 C27.3073309,20.4726661 26.8686686,20.3560006 26.486,20.244 C26.1033314,20.1319994 25.8186676,20.076 25.632,20.076 C25.3706654,20.076 25.1840006,20.1179996 25.072,20.202 C24.9599994,20.2860004 24.8573338,20.4586654 24.764,20.72 L24.316,20.72 L24.316,14.504 Z M48.884,10.836 L49.752,10.836 C51.3386746,10.836 52.4866631,10.4766703 53.196,9.758 C53.9053369,9.03932974 54.26,7.82134192 54.26,6.104 C54.26,4.47999188 53.9520031,3.23867096 53.336,2.38 C52.7199969,1.52132904 51.6000081,1.092 49.976,1.092 C49.7706656,1.092 49.5746676,1.10133324 49.388,1.12 C49.2013324,1.13866676 49.0333341,1.15733324 48.884,1.176 L48.884,10.836 Z M48.884,20.328 L51.46,20.328 L51.46,20.72 L42.248,20.72 L42.248,20.328 L44.824,20.328 L44.824,1.176 L42.248,1.176 L42.248,0.784 L44.824,0.784 C45.7760048,0.784 46.7279952,0.77000014 47.68,0.742 C48.6320048,0.71399986 49.5839952,0.7 50.536,0.7 C51.3760042,0.7 52.2813285,0.7699993 53.252,0.91 C54.2226715,1.0500007 55.1186626,1.31133142 55.94,1.694 C56.7613374,2.07666858 57.4473306,2.60866326 57.998,3.29 C58.5486694,3.97133674 58.824,4.85332792 58.824,5.936 C58.824,6.66400364 58.6466684,7.34999678 58.292,7.994 C57.9373316,8.63800322 57.3960036,9.19799762 56.668,9.674 C55.9399964,10.1500024 55.0253388,10.5279986 53.924,10.808 C52.8226612,11.0880014 51.5253408,11.228 50.032,11.228 L48.884,11.228 L48.884,20.328 Z M65.976,4.788 L62.84,12.432 L69.28,12.432 L65.976,4.788 Z M56.792,20.328 L59.144,20.328 L67.488,0 L68.244,0 L77.064,20.328 L79.472,20.328 L79.472,20.72 L70.064,20.72 L70.064,20.328 L72.668,20.328 L69.42,12.824 L62.7,12.824 L59.592,20.328 L62.084,20.328 L62.084,20.72 L56.792,20.72 L56.792,20.328 Z M86.96,9.828 L88.108,9.828 C88.9480042,9.828 89.6106642,9.71600112 90.096,9.492 C90.5813358,9.26799888 90.9453321,8.96466858 91.188,8.582 C91.4306679,8.19933142 91.5846663,7.76533576 91.65,7.28 C91.7153337,6.79466424 91.748,6.30000252 91.748,5.796 C91.748,4.97466256 91.6920006,4.27000294 91.58,3.682 C91.4679994,3.09399706 91.2813346,2.60866858 91.02,2.226 C90.7586654,1.84333142 90.3993356,1.5586676 89.942,1.372 C89.4846644,1.1853324 88.9013369,1.092 88.192,1.092 C87.9866656,1.092 87.7813344,1.10133324 87.576,1.12 L86.96,1.176 L86.96,9.828 Z M82.9,1.176 L80.324,1.176 L80.324,0.784 L84.552,0.784 C85.3360039,0.784 86.1106628,0.77000014 86.876,0.742 C87.6413372,0.71399986 88.4159961,0.7 89.2,0.7 C89.9280036,0.7 90.6979959,0.77466592 91.51,0.924 C92.3220041,1.07333408 93.0639966,1.32999818 93.736,1.694 C94.4080034,2.05800182 94.9633311,2.54799692 95.402,3.164 C95.8406689,3.78000308 96.06,4.554662 96.06,5.488 C96.06,6.2346704 95.8920017,6.87399734 95.556,7.406 C95.2199983,7.93800266 94.7860027,8.37199832 94.254,8.708 C93.7219973,9.04400168 93.1293366,9.30066578 92.476,9.478 C91.8226634,9.65533422 91.1786698,9.77199972 90.544,9.828 L90.544,9.968 C91.4586712,10.1360008 92.2753297,10.3039992 92.994,10.472 C93.7126703,10.6400008 94.3333307,10.8919983 94.856,11.228 C95.3786693,11.5640017 95.7939985,12.0306637 96.102,12.628 C96.4100015,13.2253363 96.601333,14.027995 96.676,15.036 C96.7693338,16.2120059 96.8439997,17.1546631 96.9,17.864 C96.9560003,18.5733369 97.0353328,19.123998 97.138,19.516 C97.2406672,19.908002 97.3806658,20.1693327 97.558,20.3 C97.7353342,20.4306673 97.9919983,20.496 98.328,20.496 C98.7013352,20.496 99.0093321,20.3886677 99.252,20.174 C99.4946679,19.9593323 99.7093324,19.7586676 99.896,19.572 L100.176,19.824 C99.9893324,20.0106676 99.8073342,20.1833325 99.63,20.342 C99.4526658,20.5006675 99.2473345,20.6359994 99.014,20.748 C98.7806655,20.8600006 98.4960017,20.9486663 98.16,21.014 C97.824,21.0793337 97.4040025,21.112 96.9,21.112 C95.8733282,21.112 95.0706696,20.9486683 94.492,20.622 C93.9133304,20.2953317 93.4840014,19.8893358 93.204,19.404 C92.9239986,18.9186642 92.7513337,18.3913362 92.686,17.822 C92.6206663,17.2526638 92.5786668,16.7160025 92.56,16.212 C92.5226665,15.4466628 92.4713337,14.7046703 92.406,13.986 C92.3406663,13.2673297 92.1866679,12.6280028 91.944,12.068 C91.7013321,11.5079972 91.3373358,11.0600017 90.852,10.724 C90.3666642,10.3879983 89.6853377,10.22 88.808,10.22 L86.96,10.22 L86.96,20.328 L89.536,20.328 L89.536,20.72 L80.324,20.72 L80.324,20.328 L82.9,20.328 L82.9,1.176 Z M108.644,4.788 L105.508,12.432 L111.948,12.432 L108.644,4.788 Z M99.46,20.328 L101.812,20.328 L110.156,0 L110.912,0 L119.732,20.328 L122.14,20.328 L122.14,20.72 L112.732,20.72 L112.732,20.328 L115.336,20.328 L112.088,12.824 L105.368,12.824 L102.26,20.328 L104.752,20.328 L104.752,20.72 L99.46,20.72 L99.46,20.328 Z M139.484,6.496 L139.064,6.496 C138.578664,4.66665752 137.850672,3.24333842 136.88,2.226 C135.909328,1.20866158 134.612008,0.70933324 132.988,0.728 C131.699994,0.728 130.664004,0.97533086 129.88,1.47 C129.095996,1.96466914 128.494002,2.6086627 128.074,3.402 C127.653998,4.1953373 127.378667,5.10066158 127.248,6.118 C127.117333,7.13533842 127.052,8.16666144 127.052,9.212 L127.052,11.648 C127.052,13.3466752 127.163999,14.7746609 127.388,15.932 C127.612001,17.0893391 127.961998,18.0226631 128.438,18.732 C128.914002,19.4413369 129.529996,19.9499985 130.286,20.258 C131.042004,20.5660015 131.942661,20.72 132.988,20.72 C133.846671,20.72 134.527997,20.5660015 135.032,20.258 C135.536003,19.9499985 135.923332,19.5300027 136.194,18.998 C136.464668,18.4659973 136.637333,17.836 136.712,17.108 C136.786667,16.3799964 136.824,15.586671 136.824,14.728 L136.824,13.664 L133.94,13.664 L133.94,13.272 L142.592,13.272 L142.592,13.664 L140.772,13.664 L140.772,20.076 L140.268,20.076 C140.230666,19.8519989 140.123334,19.6886672 139.946,19.586 C139.768666,19.4833328 139.568001,19.432 139.344,19.432 C138.895998,19.432 138.471335,19.5206658 138.07,19.698 C137.668665,19.8753342 137.234669,20.0666656 136.768,20.272 C136.301331,20.4773344 135.76467,20.6686658 135.158,20.846 C134.55133,21.0233342 133.818671,21.112 132.96,21.112 C131.597327,21.112 130.28134,20.8460027 129.012,20.314 C127.74266,19.7819973 126.627338,19.0540046 125.666,18.13 C124.704662,17.2059954 123.93467,16.1186729 123.356,14.868 C122.77733,13.6173271 122.488,12.2640073 122.488,10.808 C122.488,9.2213254 122.809997,7.78400644 123.454,6.496 C124.098003,5.20799356 124.923995,4.10667124 125.932,3.192 C126.940005,2.27732876 128.06466,1.57266914 129.306,1.078 C130.54734,0.58333086 131.765327,0.336 132.96,0.336 C133.520003,0.336 134.061331,0.39199944 134.584,0.504 C135.106669,0.61600056 135.591998,0.73266606 136.04,0.854 C136.488,0.97533394 136.889332,1.09199944 137.244,1.204 C137.598668,1.31600056 137.897332,1.372 138.14,1.372 C138.401335,1.372 138.587999,1.33000042 138.7,1.246 C138.812001,1.16199958 138.914666,1.00800112 139.008,0.784 L139.484,0.784 L139.484,6.496 Z M144.452,0.784 L153.692,0.784 L153.692,1.176 L151.116,1.176 L151.116,13.748 C151.116,14.6253377 151.158,15.4793292 151.242,16.31 C151.326,17.1406708 151.521998,17.8826634 151.83,18.536 C152.138002,19.1893366 152.59533,19.7166647 153.202,20.118 C153.80867,20.5193353 154.625328,20.72 155.652,20.72 C156.660005,20.72 157.504663,20.6033345 158.186,20.37 C158.867337,20.1366655 159.431998,19.8286686 159.88,19.446 C160.328002,19.0633314 160.673332,18.6340024 160.916,18.158 C161.158668,17.6819976 161.335999,17.2060024 161.448,16.73 C161.560001,16.2539976 161.625333,15.8060021 161.644,15.386 C161.662667,14.9659979 161.672,14.6160014 161.672,14.336 L161.672,1.176 L159.124,1.176 L159.124,0.784 L164.724,0.784 L164.724,1.176 L162.12,1.176 L162.12,14.308 C162.12,14.6066682 162.110667,14.9846644 162.092,15.442 C162.073333,15.8993356 161.998667,16.3799975 161.868,16.884 C161.737333,17.3880025 161.541335,17.8919975 161.28,18.396 C161.018665,18.9000025 160.636003,19.3526647 160.132,19.754 C159.627997,20.1553353 158.993337,20.4819987 158.228,20.734 C157.462663,20.9860013 156.520006,21.112 155.4,21.112 C153.589324,21.112 152.133339,20.9113353 151.032,20.51 C149.930661,20.1086647 149.086003,19.5860032 148.498,18.942 C147.909997,18.2979968 147.522668,17.5653374 147.336,16.744 C147.149332,15.9226626 147.056,15.0920042 147.056,14.252 L147.056,1.176 L144.452,1.176 L144.452,0.784 Z M167.704,14.504 L168.124,14.504 C168.161334,14.7280011 168.226666,15.0219982 168.32,15.386 C168.413334,15.7500018 168.548666,16.1419979 168.726,16.562 C168.903334,16.9820021 169.127332,17.4113311 169.398,17.85 C169.668668,18.2886689 169.999998,18.6946648 170.392,19.068 C170.821335,19.4973355 171.236665,19.8239989 171.638,20.048 C172.039335,20.2720011 172.421998,20.4353328 172.786,20.538 C173.150002,20.6406672 173.495332,20.6966666 173.822,20.706 C174.148668,20.7153334 174.451999,20.72 174.732,20.72 C175.721338,20.72 176.53333,20.5660015 177.168,20.258 C177.80267,19.9499985 178.301998,19.5720022 178.666,19.124 C179.030002,18.6759978 179.286666,18.2046691 179.436,17.71 C179.585334,17.2153309 179.66,16.7813352 179.66,16.408 C179.66,15.7173299 179.496668,15.1480022 179.17,14.7 C178.843332,14.2519978 178.409336,13.8786682 177.868,13.58 C177.326664,13.2813318 176.71067,13.0293344 176.02,12.824 C175.32933,12.6186656 174.620004,12.4086677 173.892,12.194 C173.163996,11.9793323 172.45467,11.7273348 171.764,11.438 C171.07333,11.1486652 170.457336,10.7753356 169.916,10.318 C169.374664,9.86066438 168.940668,9.29600336 168.614,8.624 C168.287332,7.95199664 168.124,7.11200504 168.124,6.104 C168.124,5.3573296 168.291998,4.63867012 168.628,3.948 C168.964002,3.25732988 169.430664,2.64600266 170.028,2.114 C170.625336,1.58199734 171.339329,1.1526683 172.17,0.826 C173.000671,0.4993317 173.901328,0.336 174.872,0.336 C175.488003,0.336 176.029331,0.39199944 176.496,0.504 C176.962669,0.61600056 177.373332,0.73266606 177.728,0.854 C178.082668,0.97533394 178.395332,1.09199944 178.666,1.204 C178.936668,1.31600056 179.183999,1.372 179.408,1.372 C179.669335,1.372 179.842,1.33000042 179.926,1.246 C180.01,1.16199958 180.098666,1.00800112 180.192,0.784 L180.64,0.784 L180.64,6.104 L180.276,6.104 C180.051999,5.4506634 179.814001,4.80666984 179.562,4.172 C179.309999,3.53733016 178.988002,2.9633359 178.596,2.45 C178.204,1.9366641 177.709336,1.52133492 177.112,1.204 C176.514664,0.88666508 175.758671,0.728 174.844,0.728 C174.09733,0.728 173.439336,0.83066564 172.87,1.036 C172.300664,1.24133436 171.820002,1.51199832 171.428,1.848 C171.035998,2.18400168 170.737334,2.55733128 170.532,2.968 C170.326666,3.37866872 170.224,3.79866452 170.224,4.228 C170.224,4.8813366 170.396665,5.42266452 170.742,5.852 C171.087335,6.28133548 171.539997,6.64999846 172.1,6.958 C172.660003,7.26600154 173.29933,7.53199888 174.018,7.756 C174.73667,7.98000112 175.473996,8.21333212 176.23,8.456 C176.986004,8.69866788 177.72333,8.96466522 178.442,9.254 C179.16067,9.54333478 179.799997,9.91199776 180.36,10.36 C180.920003,10.8080022 181.372665,11.3493302 181.718,11.984 C182.063335,12.6186698 182.236,13.402662 182.236,14.336 C182.236,15.2506712 182.049335,16.1186626 181.676,16.94 C181.302665,17.7613374 180.775337,18.4799969 180.094,19.096 C179.412663,19.7120031 178.600671,20.2019982 177.658,20.566 C176.715329,20.9300018 175.665339,21.112 174.508,21.112 C173.92933,21.112 173.355336,21.0560006 172.786,20.944 C172.216664,20.8319994 171.684669,20.7153339 171.19,20.594 C170.695331,20.4726661 170.256669,20.3560006 169.874,20.244 C169.491331,20.1319994 169.206668,20.076 169.02,20.076 C168.758665,20.076 168.572001,20.1179996 168.46,20.202 C168.347999,20.2860004 168.245334,20.4586654 168.152,20.72 L167.704,20.72 L167.704,14.504 Z" id="ASPARAGUS" fill="#6AAF1F"></path>
                <path d="M194.048,0.784 L203.26,0.784 L203.26,1.176 L200.684,1.176 L200.684,10.36 L208.776,10.36 L208.776,1.176 L206.2,1.176 L206.2,0.784 L215.412,0.784 L215.412,1.176 L212.836,1.176 L212.836,20.328 L215.412,20.328 L215.412,20.72 L206.2,20.72 L206.2,20.328 L208.776,20.328 L208.776,10.752 L200.684,10.752 L200.684,20.328 L203.26,20.328 L203.26,20.72 L194.048,20.72 L194.048,20.328 L196.624,20.328 L196.624,1.176 L194.048,1.176 L194.048,0.784 Z M222.732,10.808 C222.732,12.749343 222.843999,14.3593269 223.068,15.638 C223.292001,16.9166731 223.641998,17.9339962 224.118,18.69 C224.594002,19.4460038 225.209996,19.9733318 225.966,20.272 C226.722004,20.5706682 227.622661,20.72 228.668,20.72 C230.04934,20.72 231.131996,20.4633359 231.916,19.95 C232.700004,19.4366641 233.287998,18.7273379 233.68,17.822 C234.072002,16.9166621 234.319333,15.8433395 234.422,14.602 C234.524667,13.3606605 234.576,12.0120073 234.576,10.556 C234.576,9.2493268 234.534,8.00333926 234.45,6.818 C234.366,5.63266074 234.128002,4.58733786 233.736,3.682 C233.343998,2.77666214 232.751337,2.05800266 231.958,1.526 C231.164663,0.99399734 230.068007,0.728 228.668,0.728 C227.361327,0.728 226.316004,0.97533086 225.532,1.47 C224.747996,1.96466914 224.150669,2.65999552 223.74,3.556 C223.329331,4.45200448 223.058667,5.51599384 222.928,6.748 C222.797333,7.98000616 222.732,9.33332596 222.732,10.808 Z M218.168,10.808 C218.168,9.2213254 218.489997,7.78400644 219.134,6.496 C219.778003,5.20799356 220.603995,4.10667124 221.612,3.192 C222.620005,2.27732876 223.749327,1.57266914 225,1.078 C226.250673,0.58333086 227.473327,0.336 228.668,0.336 C229.956006,0.336 231.229994,0.57866424 232.49,1.064 C233.750006,1.54933576 234.869995,2.23999552 235.85,3.136 C236.830005,4.03200448 237.62333,5.11932694 238.23,6.398 C238.83667,7.67667306 239.14,9.11865864 239.14,10.724 C239.14,12.124007 238.855336,13.4539937 238.286,14.714 C237.716664,15.9740063 236.951338,17.0799952 235.99,18.032 C235.028662,18.9840048 233.918006,19.7353306 232.658,20.286 C231.397994,20.8366694 230.068007,21.112 228.668,21.112 C227.28666,21.112 225.96134,20.8460027 224.692,20.314 C223.42266,19.7819973 222.307338,19.0540046 221.346,18.13 C220.384662,17.2059954 219.61467,16.1186729 219.036,14.868 C218.45733,13.6173271 218.168,12.2640073 218.168,10.808 Z M241.868,0.784 L249.064,0.784 L253.908,14.728 L253.964,14.728 L258.892,0.784 L265.892,0.784 L265.892,1.176 L263.316,1.176 L263.316,20.328 L265.892,20.328 L265.892,20.72 L256.708,20.72 L256.708,20.328 L259.256,20.328 L259.256,1.176 L259.2,1.176 L252.312,20.72 L251.864,20.72 L244.948,1.176 L244.892,1.176 L244.892,20.328 L247.468,20.328 L247.468,20.72 L241.868,20.72 L241.868,20.328 L244.444,20.328 L244.444,1.176 L241.868,1.176 L241.868,0.784 Z M268.48,0.784 L285.224,0.784 L285.224,5.572 L284.86,5.572 C284.766666,5.25466508 284.608001,4.84866914 284.384,4.354 C284.159999,3.85933086 283.847335,3.378669 283.446,2.912 C283.044665,2.445331 282.52667,2.03933506 281.892,1.694 C281.25733,1.34866494 280.482671,1.176 279.568,1.176 L275.116,1.176 L275.116,9.828 L276.684,9.828 C277.37467,9.828 277.957998,9.73000098 278.434,9.534 C278.910002,9.33799902 279.306665,9.05800182 279.624,8.694 C279.941335,8.32999818 280.202666,7.8913359 280.408,7.378 C280.613334,6.8646641 280.781333,6.29066984 280.912,5.656 L281.276,5.656 L281.276,14.364 L280.912,14.364 C280.781333,13.822664 280.627334,13.3000025 280.45,12.796 C280.272666,12.2919975 280.034668,11.8486686 279.736,11.466 C279.437332,11.0833314 279.068669,10.7800011 278.63,10.556 C278.191331,10.3319989 277.645337,10.22 276.992,10.22 L275.116,10.22 L275.116,20.328 L279.708,20.328 C280.566671,20.328 281.34133,20.1833348 282.032,19.894 C282.72267,19.6046652 283.333997,19.1986693 283.866,18.676 C284.398003,18.1533307 284.841332,17.5420035 285.196,16.842 C285.550668,16.1419965 285.821332,15.3906707 286.008,14.588 L286.372,14.588 L286.372,20.72 L268.48,20.72 L268.48,20.328 L271.056,20.328 L271.056,1.176 L268.48,1.176 L268.48,0.784 Z" id="HOME" fill="#FFFFFF"></path>
            </g>
        </g>
    </g>
</svg>